<svg width="536" height="310" viewBox="0 0 536 310" fill="none" xmlns="http://www.w3.org/2000/svg">
<rect y="53" width="536" height="224" fill="white"/>
<path d="M0 53H536V105H0V53Z" fill="#1C1B1F"/>
<path d="M0 53H536V105H0V53Z" fill="#1C1B1F"/>
<path d="M0 53H536V105H0V53Z" fill="#1C1B1F"/>
<rect y="105" width="48" height="126" fill="#303179"/>
<rect y="231" width="536" height="46" fill="#303179"/>
<rect x="494" y="105" width="42" height="126" fill="#303179"/>
<path d="M75.6 222C64.6667 222 55.3333 220.467 47.6 217.4V199C50.8 200.333 54.5333 201.467 58.8 202.4C63.2 203.2 67.5333 203.6 71.8 203.6C80.7333 203.6 86.9333 201.8 90.4 198.2C94 194.467 95.8 188.533 95.8 180.4V91.2H117.6V184C117.6 196.267 114.067 205.667 107 212.2C100.067 218.733 89.6 222 75.6 222Z" fill="#1C1B1F"/>
<ellipse cx="181" cy="168" rx="51" ry="53" fill="#D9D9D9"/>
<path d="M249.6 221V92.2H308.8C323.2 92.2 333.667 95.9333 340.2 103.4C346.867 110.733 350.2 120.733 350.2 133.4C350.2 142.467 347.933 150.2 343.4 156.6C338.867 163 332.333 167.467 323.8 170C326.2 171.733 328.067 173.6 329.4 175.6C330.733 177.6 332.067 180.267 333.4 183.6L349.6 221H327.2L311.4 185C309.933 181.533 308.133 179.067 306 177.6C304 176.133 300.533 175.4 295.6 175.4H271.4V221H249.6ZM271.4 157.8H303C310.867 157.8 317.067 155.867 321.6 152C326.133 148.133 328.4 141.933 328.4 133.4C328.4 117.267 320.6 109.2 305 109.2H271.4V157.8Z" fill="#1C1B1F"/>
<path d="M372.6 231V102.2H462.4V119.2H394.4V158.2H455V175H394.4V214.2H462.4V231H372.6Z" fill="#1C1B1F"/>
<rect x="461" y="105" width="75" height="15" fill="#D9D9D9"/>
<rect x="455" y="158" width="81" height="17" fill="#D9D9D9"/>
<rect x="462" y="214" width="74" height="17" fill="#D9D9D9"/>
<ellipse cx="181" cy="165" rx="33" ry="32" fill="#303179"/>
</svg>
