<svg width="797" height="356" viewBox="0 0 797 356" fill="none" xmlns="http://www.w3.org/2000/svg">
<rect y="27" width="797" height="292" fill="#FAFAFA"/>
<rect y="27" width="57" height="292" fill="#DF2935"/>
<rect x="740" y="26" width="57" height="292" fill="#DF2935"/>
<path d="M145.601 60.1818H183.598V186.957C183.598 198.676 180.964 208.856 175.697 217.497C170.488 226.138 163.238 232.797 153.946 237.472C144.654 242.148 133.853 244.486 121.542 244.486C110.593 244.486 100.649 242.562 91.7124 238.715C82.8345 234.809 75.7914 228.89 70.5831 220.96C65.3748 212.969 62.8002 202.937 62.8594 190.864H101.123C101.241 195.658 102.218 199.771 104.053 203.204C105.946 206.577 108.521 209.182 111.776 211.016C115.091 212.792 118.997 213.68 123.495 213.68C128.23 213.68 132.225 212.674 135.48 210.661C138.795 208.59 141.31 205.571 143.026 201.606C144.743 197.64 145.601 192.758 145.601 186.957V60.1818Z" fill="black"/>
<ellipse cx="291" cy="166.5" rx="74" ry="75.5" fill="#FDCA40"/>
<rect x="430" y="137" width="69" height="68" rx="20" fill="#3772FF"/>
<path d="M397.803 295V113.182H469.536C483.267 113.182 494.985 115.638 504.692 120.55C514.457 125.404 521.885 132.299 526.975 141.236C532.124 150.114 534.699 160.56 534.699 172.575C534.699 184.648 532.095 195.036 526.886 203.736C521.678 212.377 514.132 219.006 504.248 223.622C494.423 228.239 482.527 230.547 468.559 230.547H420.53V199.652H462.344C469.683 199.652 475.78 198.646 480.633 196.634C485.486 194.621 489.096 191.603 491.464 187.578C493.89 183.554 495.104 178.552 495.104 172.575C495.104 166.538 493.89 161.448 491.464 157.305C489.096 153.162 485.456 150.025 480.544 147.894C475.691 145.704 469.565 144.609 462.167 144.609H436.244V295H397.803ZM495.991 212.259L541.18 295H498.744L454.532 212.259H495.991Z" fill="black"/>
<rect y="271" width="797" height="47" fill="#DF2935"/>
<rect y="27" width="797" height="47" fill="#DF2935"/>
<path d="M602.803 268V86.1818H725.317V117.876H641.244V161.2H719.013V192.893H641.244V236.306H725.672V268H602.803Z" fill="black"/>
</svg>
